<svg xmlns="http://www.w3.org/2000/svg" viewBox="0 0 35.554 35.057" height="132.498" width="134.378"><g fill="#2ca58d" paint-order="markers fill stroke"><path d="M28.546 30.524a9.67 2.331 0 015.953 2.968 9.67 2.331 0 01-12.31 1.435 9.67 2.331 0 01-5.957-2.967 9.67 2.331 0 0112.308-1.436" opacity=".282" fill="#0a2342"/><g color="#000" font-weight="400" font-family="sans-serif"><path d="M.69 11.074v17.351c0 2.231 1.626 4.027 3.644 4.027h25.085c2.018 0 3.643-1.796 3.643-4.027v-17.35z" style="line-height:normal;font-variant-ligatures:normal;font-variant-position:normal;font-variant-caps:normal;font-variant-numeric:normal;font-variant-alternates:normal;font-variant-east-asian:normal;font-feature-settings:normal;font-variation-settings:normal;text-indent:0;text-align:start;text-decoration-line:none;text-decoration-style:solid;text-decoration-color:#000;text-transform:none;text-orientation:mixed;white-space:normal;shape-padding:0;shape-margin:0;inline-size:0;isolation:auto;mix-blend-mode:normal;solid-color:#000;solid-opacity:1" overflow="visible" fill="#fffdf7"/><path d="M.69 10.383a.69.69 0 00-.69.691v17.351c0 2.567 1.906 4.718 4.334 4.718h25.085c2.428 0 4.334-2.151 4.334-4.718v-17.35a.69.69 0 00-.691-.692zm.692 1.382h30.99v16.66c0 1.896-1.345 3.337-2.953 3.337H4.334c-1.608 0-2.952-1.441-2.952-3.337z" style="line-height:normal;font-variant-ligatures:normal;font-variant-position:normal;font-variant-caps:normal;font-variant-numeric:normal;font-variant-alternates:normal;font-variant-east-asian:normal;font-feature-settings:normal;font-variation-settings:normal;text-indent:0;text-align:start;text-decoration-line:none;text-decoration-style:solid;text-decoration-color:#000;text-transform:none;text-orientation:mixed;white-space:normal;shape-padding:0;shape-margin:0;inline-size:0;isolation:auto;mix-blend-mode:normal;solid-color:#000;solid-opacity:1" overflow="visible" fill="#0a2342"/></g><g color="#000" font-weight="400" font-family="sans-serif"><path d="M.69 11.074h32.372V7.343c0-2.232-1.625-4.028-3.643-4.028H4.334C2.316 3.315.69 5.11.69 7.343z" style="line-height:normal;font-variant-ligatures:normal;font-variant-position:normal;font-variant-caps:normal;font-variant-numeric:normal;font-variant-alternates:normal;font-variant-east-asian:normal;font-feature-settings:normal;font-variation-settings:normal;text-indent:0;text-align:start;text-decoration-line:none;text-decoration-style:solid;text-decoration-color:#000;text-transform:none;text-orientation:mixed;white-space:normal;shape-padding:0;shape-margin:0;inline-size:0;isolation:auto;mix-blend-mode:normal;solid-color:#000;solid-opacity:1" overflow="visible"/><path d="M4.334 2.624C1.906 2.624 0 4.776 0 7.343v3.731a.69.69 0 00.69.691h32.372a.69.69 0 00.69-.69V7.342c0-2.567-1.905-4.72-4.333-4.72zm0 1.382h25.085c1.608 0 2.952 1.44 2.952 3.337v3.04H1.381v-3.04c0-1.896 1.345-3.337 2.953-3.337z" style="line-height:normal;font-variant-ligatures:normal;font-variant-position:normal;font-variant-caps:normal;font-variant-numeric:normal;font-variant-alternates:normal;font-variant-east-asian:normal;font-feature-settings:normal;font-variation-settings:normal;text-indent:0;text-align:start;text-decoration-line:none;text-decoration-style:solid;text-decoration-color:#000;text-transform:none;text-orientation:mixed;white-space:normal;shape-padding:0;shape-margin:0;inline-size:0;isolation:auto;mix-blend-mode:normal;solid-color:#000;solid-opacity:1" overflow="visible" fill="#0a2342"/></g><g fill="#84bc9c" color="#000" font-weight="400" font-family="sans-serif"><path d="M7.846.617c.734 0 1.325.582 1.325 1.305v3.106c0 .723-.591 1.305-1.325 1.305a1.312 1.312 0 01-1.324-1.305V1.922c0-.723.59-1.305 1.324-1.305z" style="line-height:normal;font-variant-ligatures:normal;font-variant-position:normal;font-variant-caps:normal;font-variant-numeric:normal;font-variant-alternates:normal;font-variant-east-asian:normal;font-feature-settings:normal;font-variation-settings:normal;text-indent:0;text-align:start;text-decoration-line:none;text-decoration-style:solid;text-decoration-color:#000;text-transform:none;text-orientation:mixed;white-space:normal;shape-padding:0;shape-margin:0;inline-size:0;isolation:auto;mix-blend-mode:normal;solid-color:#000;solid-opacity:1" overflow="visible"/><path d="M7.847 0c-1.06 0-1.942.862-1.942 1.922v3.106c0 1.06.882 1.922 1.942 1.922s1.942-.862 1.942-1.922V1.922C9.789.862 8.907 0 7.847 0zm0 1.234c.407 0 .706.3.706.688v3.106c0 .387-.299.688-.706.688-.408 0-.708-.3-.708-.688V1.922c0-.387.3-.688.708-.688z" style="line-height:normal;font-variant-ligatures:normal;font-variant-position:normal;font-variant-caps:normal;font-variant-numeric:normal;font-variant-alternates:normal;font-variant-east-asian:normal;font-feature-settings:normal;font-variation-settings:normal;text-indent:0;text-align:start;text-decoration-line:none;text-decoration-style:solid;text-decoration-color:#000;text-transform:none;text-orientation:mixed;white-space:normal;shape-padding:0;shape-margin:0;inline-size:0;isolation:auto;mix-blend-mode:normal;solid-color:#000;solid-opacity:1" overflow="visible" fill="#0a2342"/><path d="M26.005.617c.734 0 1.325.582 1.325 1.305v3.106c0 .723-.59 1.305-1.325 1.305a1.312 1.312 0 01-1.324-1.305V1.922c0-.723.59-1.305 1.324-1.305z" style="line-height:normal;font-variant-ligatures:normal;font-variant-position:normal;font-variant-caps:normal;font-variant-numeric:normal;font-variant-alternates:normal;font-variant-east-asian:normal;font-feature-settings:normal;font-variation-settings:normal;text-indent:0;text-align:start;text-decoration-line:none;text-decoration-style:solid;text-decoration-color:#000;text-transform:none;text-orientation:mixed;white-space:normal;shape-padding:0;shape-margin:0;inline-size:0;isolation:auto;mix-blend-mode:normal;solid-color:#000;solid-opacity:1" overflow="visible"/><path d="M26.006 0c-1.06 0-1.942.862-1.942 1.922v3.106c0 1.06.881 1.922 1.942 1.922 1.06 0 1.942-.862 1.942-1.922V1.922C27.948.862 27.066 0 26.006 0zm0 1.234c.407 0 .708.3.708.688v3.106c0 .387-.3.688-.708.688s-.708-.3-.708-.688V1.922c0-.387.3-.688.708-.688z" style="line-height:normal;font-variant-ligatures:normal;font-variant-position:normal;font-variant-caps:normal;font-variant-numeric:normal;font-variant-alternates:normal;font-variant-east-asian:normal;font-feature-settings:normal;font-variation-settings:normal;text-indent:0;text-align:start;text-decoration-line:none;text-decoration-style:solid;text-decoration-color:#000;text-transform:none;text-orientation:mixed;white-space:normal;shape-padding:0;shape-margin:0;inline-size:0;isolation:auto;mix-blend-mode:normal;solid-color:#000;solid-opacity:1" overflow="visible" fill="#0a2342"/><g><path d="M13.9.617c.733 0 1.324.582 1.324 1.305v3.106c0 .723-.591 1.305-1.325 1.305a1.312 1.312 0 01-1.324-1.305V1.922c0-.723.59-1.305 1.324-1.305z" style="line-height:normal;font-variant-ligatures:normal;font-variant-position:normal;font-variant-caps:normal;font-variant-numeric:normal;font-variant-alternates:normal;font-variant-east-asian:normal;font-feature-settings:normal;font-variation-settings:normal;text-indent:0;text-align:start;text-decoration-line:none;text-decoration-style:solid;text-decoration-color:#000;text-transform:none;text-orientation:mixed;white-space:normal;shape-padding:0;shape-margin:0;inline-size:0;isolation:auto;mix-blend-mode:normal;solid-color:#000;solid-opacity:1" overflow="visible"/><path d="M13.9 0c-1.061 0-1.943.862-1.943 1.922v3.106c0 1.06.882 1.922 1.942 1.922s1.942-.862 1.942-1.922V1.922C15.841.862 14.959 0 13.899 0zm0 1.234c.406 0 .707.3.707.688v3.106c0 .387-.3.688-.708.688-.407 0-.708-.3-.708-.688V1.922c0-.387.3-.688.708-.688z" style="line-height:normal;font-variant-ligatures:normal;font-variant-position:normal;font-variant-caps:normal;font-variant-numeric:normal;font-variant-alternates:normal;font-variant-east-asian:normal;font-feature-settings:normal;font-variation-settings:normal;text-indent:0;text-align:start;text-decoration-line:none;text-decoration-style:solid;text-decoration-color:#000;text-transform:none;text-orientation:mixed;white-space:normal;shape-padding:0;shape-margin:0;inline-size:0;isolation:auto;mix-blend-mode:normal;solid-color:#000;solid-opacity:1" overflow="visible" fill="#0a2342"/></g><g><path d="M19.952.617c.734 0 1.325.582 1.325 1.305v3.106c0 .723-.59 1.305-1.325 1.305a1.312 1.312 0 01-1.324-1.305V1.922c0-.723.59-1.305 1.324-1.305z" style="line-height:normal;font-variant-ligatures:normal;font-variant-position:normal;font-variant-caps:normal;font-variant-numeric:normal;font-variant-alternates:normal;font-variant-east-asian:normal;font-feature-settings:normal;font-variation-settings:normal;text-indent:0;text-align:start;text-decoration-line:none;text-decoration-style:solid;text-decoration-color:#000;text-transform:none;text-orientation:mixed;white-space:normal;shape-padding:0;shape-margin:0;inline-size:0;isolation:auto;mix-blend-mode:normal;solid-color:#000;solid-opacity:1" overflow="visible"/><path d="M19.951 0c-1.06 0-1.942.862-1.942 1.922v3.106c0 1.06.882 1.922 1.942 1.922s1.942-.862 1.942-1.922V1.922C21.893.862 21.012 0 19.951 0zm0 1.234c.408 0 .708.3.708.688v3.106c0 .387-.3.688-.708.688-.407 0-.705-.3-.705-.688V1.922c0-.387.298-.688.705-.688z" style="line-height:normal;font-variant-ligatures:normal;font-variant-position:normal;font-variant-caps:normal;font-variant-numeric:normal;font-variant-alternates:normal;font-variant-east-asian:normal;font-feature-settings:normal;font-variation-settings:normal;text-indent:0;text-align:start;text-decoration-line:none;text-decoration-style:solid;text-decoration-color:#000;text-transform:none;text-orientation:mixed;white-space:normal;shape-padding:0;shape-margin:0;inline-size:0;isolation:auto;mix-blend-mode:normal;solid-color:#000;solid-opacity:1" overflow="visible" fill="#0a2342"/></g></g><g color="#000" font-weight="400" font-family="sans-serif"><path d="M.649 11.032V26.3c0 1.963 1.629 3.544 3.652 3.544h25.15c2.024 0 3.653-1.58 3.653-3.544V11.032z" style="line-height:normal;font-variant-ligatures:normal;font-variant-position:normal;font-variant-caps:normal;font-variant-numeric:normal;font-variant-alternates:normal;font-variant-east-asian:normal;font-feature-settings:normal;font-variation-settings:normal;text-indent:0;text-align:start;text-decoration-line:none;text-decoration-style:solid;text-decoration-color:#000;text-transform:none;text-orientation:mixed;white-space:normal;shape-padding:0;shape-margin:0;inline-size:0;isolation:auto;mix-blend-mode:normal;solid-color:#000;solid-opacity:1" overflow="visible" fill="#fffdf7"/><path d="M.649 10.383a.649.649 0 00-.649.649v15.266c0 2.322 1.94 4.194 4.302 4.194h25.15c2.36 0 4.3-1.872 4.3-4.194V11.032a.649.649 0 00-.649-.65zm.648 1.297h31.157v14.618c0 1.604-1.317 2.897-3.002 2.897H4.302c-1.685 0-3.005-1.293-3.005-2.897z" style="line-height:normal;font-variant-ligatures:normal;font-variant-position:normal;font-variant-caps:normal;font-variant-numeric:normal;font-variant-alternates:normal;font-variant-east-asian:normal;font-feature-settings:normal;font-variation-settings:normal;text-indent:0;text-align:start;text-decoration-line:none;text-decoration-style:solid;text-decoration-color:#000;text-transform:none;text-orientation:mixed;white-space:normal;shape-padding:0;shape-margin:0;inline-size:0;isolation:auto;mix-blend-mode:normal;solid-color:#000;solid-opacity:1" overflow="visible" fill="#0a2342"/></g><g color="#000" font-weight="400" font-family="sans-serif"><path d="M26.887 17.677a7.84 7.84 0 00-.74.064c.066.019.13.039.195.06l.003.001a5.83 5.83 0 01-3.833 11.011 5.83 5.83 0 01-3.148-2.627 7.844 7.844 0 005.228 6.739 7.844 7.844 0 005.158-14.817l-.005-.001a7.844 7.844 0 00-2.858-.43z" style="line-height:normal;font-variant-ligatures:normal;font-variant-position:normal;font-variant-caps:normal;font-variant-numeric:normal;font-variant-alternates:normal;font-variant-east-asian:normal;font-feature-settings:normal;font-variation-settings:normal;text-indent:0;text-align:start;text-decoration-line:none;text-decoration-style:solid;text-decoration-color:#000;text-transform:none;text-orientation:mixed;white-space:normal;shape-padding:0;shape-margin:0;inline-size:0;isolation:auto;mix-blend-mode:normal;solid-color:#000;solid-opacity:1" overflow="visible"/><path d="M26.866 17.138c-.264.011-.527.034-.79.07a.538.538 0 00-.079 1.051c.054.016.108.03.162.048a.538.538 0 00.01.003l.006.002a5.283 5.283 0 013.25 6.735 5.283 5.283 0 01-6.734 3.26 5.293 5.293 0 01-2.859-2.385.538.538 0 00-1.004.31 8.387 8.387 0 005.588 7.201c4.366 1.52 9.152-.795 10.672-5.161 1.52-4.366-.796-9.152-5.161-10.672a.538.538 0 00-.006-.003h-.005l.005.003c-.92-.32-1.89-.445-2.864-.432a.538.538 0 00-.188-.03.538.538 0 00-.003 0zm1.608 1.315c.365.067.743.042 1.095.164a.538.538 0 00.005 0l.005.002a7.297 7.297 0 014.491 9.298 7.297 7.297 0 01-9.3 4.499c-1.904-.666-3.15-2.194-3.966-3.962.48.339.97.67 1.532.867 3.315 1.153 6.953-.604 8.107-3.919.895-2.57.007-5.299-1.968-6.95z" style="line-height:normal;font-variant-ligatures:normal;font-variant-position:normal;font-variant-caps:normal;font-variant-numeric:normal;font-variant-alternates:normal;font-variant-east-asian:normal;font-feature-settings:normal;font-variation-settings:normal;text-indent:0;text-align:start;text-decoration-line:none;text-decoration-style:solid;text-decoration-color:#000;text-transform:none;text-orientation:mixed;white-space:normal;shape-padding:0;shape-margin:0;inline-size:0;isolation:auto;mix-blend-mode:normal;solid-color:#000;solid-opacity:1" overflow="visible" fill="#0a2342"/><g><path d="M26.276 25.925l-2.289-1.542-2.327 1.482.76-2.653-2.13-1.756 2.758-.097 1.012-2.567.945 2.592 2.754.17-2.174 1.699z" style="line-height:normal;font-variant-ligatures:normal;font-variant-position:normal;font-variant-caps:normal;font-variant-numeric:normal;font-variant-alternates:normal;font-variant-east-asian:normal;font-feature-settings:normal;font-variation-settings:normal;text-indent:0;text-align:start;text-decoration-line:none;text-decoration-style:solid;text-decoration-color:#000;text-transform:none;text-orientation:mixed;white-space:normal;shape-padding:0;shape-margin:0;inline-size:0;isolation:auto;mix-blend-mode:normal;solid-color:#000;solid-opacity:1" overflow="visible" fill="#fd5"/><path d="M24.227 18.372a.453.453 0 00-.589.254l-.901 2.291-2.463.088a.453.453 0 00-.272.801l1.901 1.567-.679 2.367a.453.453 0 00.68.508l2.075-1.325 2.043 1.378a.453.453 0 00.691-.49l-.615-2.385 1.94-1.518a.453.453 0 00-.252-.807l-2.459-.15-.843-2.314a.453.453 0 00-.257-.265zm-.183 1.696l.536 1.471a.453.453 0 00.397.297l1.562.097-1.232.963a.453.453 0 00-.16.47l.392 1.517-1.3-.875a.453.453 0 00-.496-.007l-1.319.84.43-1.504a.453.453 0 00-.147-.474l-1.207-.996 1.565-.056a.453.453 0 00.405-.285z" style="line-height:normal;font-variant-ligatures:normal;font-variant-position:normal;font-variant-caps:normal;font-variant-numeric:normal;font-variant-alternates:normal;font-variant-east-asian:normal;font-feature-settings:normal;font-variation-settings:normal;text-indent:0;text-align:start;text-decoration-line:none;text-decoration-style:solid;text-decoration-color:#000;text-transform:none;text-orientation:mixed;white-space:normal;shape-padding:0;shape-margin:0;inline-size:0;isolation:auto;mix-blend-mode:normal;solid-color:#000;solid-opacity:1" overflow="visible" fill="#0a2342"/></g></g><g color="#000" font-weight="400" font-family="sans-serif"><path d="M7.662 14.68h1.49c.418 0 .755.328.755.736v1.527a.745.745 0 01-.756.737H7.662a.745.745 0 01-.755-.737v-1.527c0-.408.337-.737.755-.737z" style="line-height:normal;font-variant-ligatures:normal;font-variant-position:normal;font-variant-caps:normal;font-variant-numeric:normal;font-variant-alternates:normal;font-variant-east-asian:normal;font-feature-settings:normal;font-variation-settings:normal;text-indent:0;text-align:start;text-decoration-line:none;text-decoration-style:solid;text-decoration-color:#000;text-transform:none;text-orientation:mixed;white-space:normal;shape-padding:0;shape-margin:0;inline-size:0;isolation:auto;mix-blend-mode:normal;solid-color:#000;solid-opacity:1" overflow="visible" fill="#84bc9c"/><path d="M7.662 14.265c-.636 0-1.169.516-1.169 1.152v1.526c0 .637.533 1.15 1.169 1.15H9.15c.636 0 1.17-.513 1.17-1.15v-1.526c0-.636-.534-1.152-1.17-1.152zm0 .828H9.15c.202 0 .343.144.343.324v1.526c0 .18-.141.322-.343.322H7.66c-.201 0-.34-.142-.34-.322v-1.526c0-.18.139-.324.34-.324z" style="line-height:normal;font-variant-ligatures:normal;font-variant-position:normal;font-variant-caps:normal;font-variant-numeric:normal;font-variant-alternates:normal;font-variant-east-asian:normal;font-feature-settings:normal;font-variation-settings:normal;text-indent:0;text-align:start;text-decoration-line:none;text-decoration-style:solid;text-decoration-color:#000;text-transform:none;text-orientation:mixed;white-space:normal;shape-padding:0;shape-margin:0;inline-size:0;isolation:auto;mix-blend-mode:normal;solid-color:#000;solid-opacity:1" overflow="visible" fill="#0a2342"/></g><g color="#000" font-weight="400" font-family="sans-serif"><path d="M13.978 14.68h1.489c.419 0 .756.328.756.736v1.527a.745.745 0 01-.756.737h-1.489a.745.745 0 01-.756-.737v-1.527c0-.408.337-.737.756-.737z" style="line-height:normal;font-variant-ligatures:normal;font-variant-position:normal;font-variant-caps:normal;font-variant-numeric:normal;font-variant-alternates:normal;font-variant-east-asian:normal;font-feature-settings:normal;font-variation-settings:normal;text-indent:0;text-align:start;text-decoration-line:none;text-decoration-style:solid;text-decoration-color:#000;text-transform:none;text-orientation:mixed;white-space:normal;shape-padding:0;shape-margin:0;inline-size:0;isolation:auto;mix-blend-mode:normal;solid-color:#000;solid-opacity:1" overflow="visible" fill="#84bc9c"/><path d="M13.977 14.265c-.635 0-1.169.516-1.169 1.152v1.526c0 .637.534 1.15 1.17 1.15h1.488c.636 0 1.171-.513 1.171-1.15v-1.526c0-.636-.535-1.152-1.17-1.152zm0 .828h1.49c.201 0 .342.144.342.324v1.526c0 .18-.14.322-.343.322h-1.489c-.202 0-.34-.142-.34-.322v-1.526c0-.18.138-.324.34-.324z" style="line-height:normal;font-variant-ligatures:normal;font-variant-position:normal;font-variant-caps:normal;font-variant-numeric:normal;font-variant-alternates:normal;font-variant-east-asian:normal;font-feature-settings:normal;font-variation-settings:normal;text-indent:0;text-align:start;text-decoration-line:none;text-decoration-style:solid;text-decoration-color:#000;text-transform:none;text-orientation:mixed;white-space:normal;shape-padding:0;shape-margin:0;inline-size:0;isolation:auto;mix-blend-mode:normal;solid-color:#000;solid-opacity:1" overflow="visible" fill="#0a2342"/></g><g color="#000" font-weight="400" font-family="sans-serif"><path d="M20.642 14.68h1.49c.418 0 .755.328.755.736v1.527a.745.745 0 01-.756.737h-1.489a.745.745 0 01-.755-.737v-1.527c0-.408.337-.737.755-.737z" style="line-height:normal;font-variant-ligatures:normal;font-variant-position:normal;font-variant-caps:normal;font-variant-numeric:normal;font-variant-alternates:normal;font-variant-east-asian:normal;font-feature-settings:normal;font-variation-settings:normal;text-indent:0;text-align:start;text-decoration-line:none;text-decoration-style:solid;text-decoration-color:#000;text-transform:none;text-orientation:mixed;white-space:normal;shape-padding:0;shape-margin:0;inline-size:0;isolation:auto;mix-blend-mode:normal;solid-color:#000;solid-opacity:1" overflow="visible" fill="#84bc9c"/><path d="M20.642 14.265c-.636 0-1.17.516-1.17 1.152v1.526c0 .637.534 1.15 1.17 1.15h1.489c.635 0 1.17-.513 1.17-1.15v-1.526c0-.636-.535-1.152-1.17-1.152zm0 .828h1.489c.201 0 .342.144.342.324v1.526c0 .18-.14.322-.342.322h-1.49c-.201 0-.34-.142-.34-.322v-1.526c0-.18.139-.324.34-.324z" style="line-height:normal;font-variant-ligatures:normal;font-variant-position:normal;font-variant-caps:normal;font-variant-numeric:normal;font-variant-alternates:normal;font-variant-east-asian:normal;font-feature-settings:normal;font-variation-settings:normal;text-indent:0;text-align:start;text-decoration-line:none;text-decoration-style:solid;text-decoration-color:#000;text-transform:none;text-orientation:mixed;white-space:normal;shape-padding:0;shape-margin:0;inline-size:0;isolation:auto;mix-blend-mode:normal;solid-color:#000;solid-opacity:1" overflow="visible" fill="#0a2342"/></g><g color="#000" font-weight="400" font-family="sans-serif"><path d="M13.978 20.506h1.489c.419 0 .756.33.756.738v1.526a.745.745 0 01-.756.737h-1.489a.745.745 0 01-.756-.737v-1.526c0-.409.337-.738.756-.738z" style="line-height:normal;font-variant-ligatures:normal;font-variant-position:normal;font-variant-caps:normal;font-variant-numeric:normal;font-variant-alternates:normal;font-variant-east-asian:normal;font-feature-settings:normal;font-variation-settings:normal;text-indent:0;text-align:start;text-decoration-line:none;text-decoration-style:solid;text-decoration-color:#000;text-transform:none;text-orientation:mixed;white-space:normal;shape-padding:0;shape-margin:0;inline-size:0;isolation:auto;mix-blend-mode:normal;solid-color:#000;solid-opacity:1" overflow="visible" fill="#84bc9c"/><path d="M13.977 20.093c-.635 0-1.169.514-1.169 1.15v1.526c0 .637.534 1.153 1.17 1.153h1.488c.636 0 1.171-.516 1.171-1.153v-1.526c0-.636-.535-1.15-1.17-1.15zm0 .828h1.49c.201 0 .342.142.342.322v1.526c0 .18-.14.324-.343.324h-1.489c-.202 0-.34-.144-.34-.324v-1.526c0-.18.138-.322.34-.322z" style="line-height:normal;font-variant-ligatures:normal;font-variant-position:normal;font-variant-caps:normal;font-variant-numeric:normal;font-variant-alternates:normal;font-variant-east-asian:normal;font-feature-settings:normal;font-variation-settings:normal;text-indent:0;text-align:start;text-decoration-line:none;text-decoration-style:solid;text-decoration-color:#000;text-transform:none;text-orientation:mixed;white-space:normal;shape-padding:0;shape-margin:0;inline-size:0;isolation:auto;mix-blend-mode:normal;solid-color:#000;solid-opacity:1" overflow="visible" fill="#0a2342"/></g><g color="#000" font-weight="400" font-family="sans-serif"><path d="M7.662 20.506h1.49c.418 0 .755.33.755.738v1.526a.745.745 0 01-.756.737H7.662a.745.745 0 01-.755-.737v-1.526c0-.409.337-.738.755-.738z" style="line-height:normal;font-variant-ligatures:normal;font-variant-position:normal;font-variant-caps:normal;font-variant-numeric:normal;font-variant-alternates:normal;font-variant-east-asian:normal;font-feature-settings:normal;font-variation-settings:normal;text-indent:0;text-align:start;text-decoration-line:none;text-decoration-style:solid;text-decoration-color:#000;text-transform:none;text-orientation:mixed;white-space:normal;shape-padding:0;shape-margin:0;inline-size:0;isolation:auto;mix-blend-mode:normal;solid-color:#000;solid-opacity:1" overflow="visible" fill="#84bc9c"/><path d="M7.662 20.093c-.636 0-1.169.514-1.169 1.15v1.526c0 .637.533 1.153 1.169 1.153H9.15c.636 0 1.17-.516 1.17-1.153v-1.526c0-.636-.534-1.15-1.17-1.15zm0 .828H9.15c.202 0 .343.142.343.322v1.526c0 .18-.141.324-.343.324H7.66c-.201 0-.34-.144-.34-.324v-1.526c0-.18.139-.322.34-.322z" style="line-height:normal;font-variant-ligatures:normal;font-variant-position:normal;font-variant-caps:normal;font-variant-numeric:normal;font-variant-alternates:normal;font-variant-east-asian:normal;font-feature-settings:normal;font-variation-settings:normal;text-indent:0;text-align:start;text-decoration-line:none;text-decoration-style:solid;text-decoration-color:#000;text-transform:none;text-orientation:mixed;white-space:normal;shape-padding:0;shape-margin:0;inline-size:0;isolation:auto;mix-blend-mode:normal;solid-color:#000;solid-opacity:1" overflow="visible" fill="#0a2342"/></g></g></svg>