<svg xmlns="http://www.w3.org/2000/svg" width="148.869" height="126.074" viewBox="0 0 39.388 33.357"><path d="M15.07 9.146c-.266-.021-.585.034-.68.14-.23.253-.512.984-.64 1.655-.252 1.331-.61 3.035-.906 4.33-.326 1.421-.42 1.6-.845 1.6a.601.601 0 01-.392-.192c-.227-.242-.222-.284.338-2.752.595-2.626.65-2.981.528-3.437-.054-.203-.173-.447-.264-.544-.336-.358-.889-.125-1.15.486-.191.445-.712 2.3-1.096 3.903-.175.73-.336 1.387-.358 1.462-.035.12.002.13.302.089.586-.08 1.229.37 1.627 1.14.139.268.183.482.184.898.002.478-.033.616-.284 1.108-.158.309-.429.774-.601 1.034-.298.448-.305.472-.14.472.28 0 1.064.224 1.552.444.827.37 1.9 1.686 2.746 3.364.319.634.347.885.124 1.108-.196.196-.635.207-.795.02-.064-.076-.267-.418-.45-.761-.527-.984-1.124-1.842-1.584-2.278-.545-.515-1.16-.722-2.321-.782-.933-.048-1.092-.128-1.092-.547 0-.199.115-.43.45-.905 1.382-1.964 1.507-2.366.933-2.997l-.159-.173-.436.234c-.878.471-2.78 1.938-3.161 2.438-.369.483-.541 1.82-.36 2.78.1.518.361.907 1.715 2.541 1.437 1.736 1.807 2.276 1.878 2.743.08.521-.04 1.437-.367 2.836-.156.666-.3 1.29-.32 1.386l-.035.177 3.807-.02 3.808-.021.098-.583c.08-.474.255-.902.93-2.272l.832-1.688.304-2.995c.644-6.343.838-8.785.74-9.304-.068-.368-.291-.597-.582-.597-.21 0-.227.023-.278.409-.03.225-.242 1.422-.472 2.66-.292 1.568-.46 2.296-.554 2.4-.3.33-.968.085-.968-.356 0-.106.21-1.344.466-2.75.494-2.706.734-4.256.822-5.302l.053-.638-.238-.123c-.544-.282-.896-.047-.985.657-.078.617-.69 3.682-.98 4.897-.134.568-.307 1.11-.382 1.203-.158.195-.55.227-.75.061-.269-.223-.26-.405.092-1.95 1.04-4.558 1.188-6.407.532-6.66a.88.88 0 00-.237-.048zm11.131 0c-.479 0-.68.204-.79.8-.124.674.116 2.684.71 5.94.273 1.491.281 1.694.072 1.883-.206.187-.592.182-.785-.01-.176-.177-.631-2.527-.98-5.062-.224-1.627-.308-1.834-.748-1.834-.272 0-.607.31-.605.562.007.989.366 3.94.786 6.455.168 1.005.305 1.891.305 1.97 0 .428-.718.618-.997.264-.139-.178-.54-2.355-.881-4.784l-.09-.644h-.256a.807.807 0 00-.437.147c-.352.285-.311 1.257.32 7.617.209 2.103.404 4.102.434 4.442.051.577.105.72.796 2.107.817 1.641 1.011 2.136 1.084 2.752l.048.413h7.644l-.047-.176c-.208-.776-.604-2.639-.676-3.177-.159-1.191-.04-1.47 1.327-3.123 1.403-1.697 1.965-2.435 2.137-2.81.137-.297.16-.498.156-1.326-.006-1.341-.143-1.695-.91-2.354-.756-.651-1.913-1.503-2.536-1.867-.491-.287-.521-.295-.663-.166-.213.193-.367.52-.367.783 0 .296.344.934 1.102 2.047.647.95.73 1.208.47 1.468-.115.115-.31.153-.955.188-1.154.063-1.77.272-2.319.786-.47.441-1.203 1.499-1.631 2.354-.356.71-.459.819-.776.819-.325 0-.573-.233-.573-.54 0-.47 1.298-2.615 2.049-3.384.52-.532 1.302-.935 2.091-1.076.298-.053.542-.105.542-.115 0-.01-.192-.324-.426-.697-.597-.95-.77-1.439-.723-2.046.046-.587.29-1.043.802-1.492.392-.346.687-.445 1.094-.368.154.028.268.018.268-.025 0-.18-.658-3.267-.906-4.255-.304-1.207-.402-1.442-.703-1.679-.563-.442-1.075.038-1.073 1.008 0 .279.19 1.643.423 3.031l.422 2.525-.218.187c-.26.223-.517.238-.758.044-.153-.125-.216-.37-.477-1.892-.166-.962-.37-2.241-.457-2.842-.185-1.287-.468-2.276-.748-2.609-.172-.204-.254-.239-.57-.239z" fill="#fffdf7" paint-order="markers fill stroke" stroke-width="1.48"/><path style="line-height:normal;font-variant-ligatures:normal;font-variant-position:normal;font-variant-caps:normal;font-variant-numeric:normal;font-variant-alternates:normal;font-feature-settings:normal;text-indent:0;text-align:start;text-decoration-line:none;text-decoration-style:solid;text-decoration-color:#000;text-transform:none;text-orientation:mixed;white-space:normal;shape-padding:0;isolation:auto;mix-blend-mode:normal;solid-color:#000;solid-opacity:1" d="M14.926 7.936a3.517 3.517 0 00-.462.024c-.477.054-.836.35-1.076.66-.12.154-.22.317-.304.482a1.857 1.857 0 00-.47-.353 1.678 1.678 0 00-1.304-.112c-.406.14-.729.404-1.024.717-.227.24-.261.41-.36.666-.097.257-.2.571-.306.928-.215.715-.446 1.6-.662 2.467-.43 1.723-.793 3.36-.798 3.383-.142.097-.282.19-.427.295-.476.342-.954.712-1.357 1.058-.403.345-.72.632-.936.957-.378.567-.505 1.265-.55 1.963a7.237 7.237 0 00.129 1.947c.103.474.371.82.704 1.272.334.45.746.949 1.157 1.44.41.49.819.973 1.136 1.376.318.404.545.787.553.81-.014-.042.024.386-.045.866-.068.48-.19 1.068-.322 1.63-.265 1.122-.568 2.143-.568 2.143a.611.611 0 101.171.348s.312-1.048.586-2.213c.138-.582.267-1.192.344-1.734.077-.542.156-.96-.01-1.44-.143-.414-.408-.733-.748-1.166-.34-.432-.754-.92-1.162-1.406a31.025 31.025 0 01-1.11-1.38 5.26 5.26 0 01-.491-.807 6.242 6.242 0 01-.106-1.606c.038-.577.182-1.115.347-1.363.056-.083.347-.393.716-.709.368-.316.826-.67 1.277-.994.452-.325.9-.621 1.242-.819.15-.086.266-.143.355-.183.055.038.193.113.317.287.152.212.232.455.201.66a3.163 3.163 0 01-.258.606c-.155.289-.361.622-.566.931-.41.618-.807 1.14-.807 1.14a.611.611 0 00.567.975s1.201-.143 2.306.397c.393.192 1.075 1.008 1.547 1.775.472.768.791 1.461.791 1.461a.611.611 0 101.111-.51s-.345-.752-.861-1.591c-.516-.84-1.146-1.79-2.05-2.233-.645-.315-1.255-.402-1.784-.457.095-.136.098-.128.2-.281.217-.329.438-.686.622-1.028.184-.341.337-.643.39-1.005.091-.61-.13-1.152-.415-1.551-.286-.399-.6-.69-1.045-.816-.4-.115-.51.013-.682.084l-.019.009c.143-.618.329-1.406.533-2.226a56.7 56.7 0 01.647-2.412c.102-.34.2-.633.28-.842.08-.21.204-.368.105-.264.217-.23.408-.356.53-.398.123-.042.18-.047.34.037.265.14.481.643.458 1.215-.002.056-.07.512-.174 1.027a82.84 82.84 0 01-.375 1.748c-.272 1.21-.541 2.33-.541 2.33a.612.612 0 101.19.285s.268-1.127.542-2.347c.137-.61.276-1.244.383-1.776.098-.49.17-.846.19-1.139a.612.612 0 00.027-.107s.08-.523.27-1.039a2.62 2.62 0 01.337-.658c.12-.153.2-.191.25-.197.445-.051.67.01.8.125.128.114.287.409.3 1.12.012.62-.298 2.41-.621 3.934-.324 1.525-.65 2.852-.65 2.852a.612.612 0 001.187.293s.332-1.343.66-2.89c.25-1.18.504-2.436.603-3.402a.938.938 0 01.304-.274c.153-.08.385-.002.73.252.007.118.038.378-.006.869a32.973 32.973 0 01-.301 2.217c-.276 1.697-.669 3.707-.975 5.37a.611.611 0 101.201.222c.291-1.584.665-3.498.943-5.176.073 0 .15.007.23.023.256.054.41.077.491.531.023.13.022 1.06-.056 2.162a141.822 141.822 0 01-.34 3.819c-.135 1.353-.277 2.696-.387 3.765-.109 1.07-.19 1.798-.19 2.17 0 .076-.068.373-.216.72a18.09 18.09 0 01-.578 1.175c-.44.841-.933 1.653-1.043 2.445-.074.535-.123.811-.149.934l-.011.048a.611.611 0 00-.002.004.611.611 0 00.996.67s.068-.077.086-.105a.614.614 0 00.076-.164 1.83 1.83 0 00.05-.199c.038-.174.088-.468.165-1.02.04-.294.471-1.196.916-2.047.222-.425.443-.854.617-1.261.174-.408.316-.778.316-1.2 0-.126.073-.98.182-2.045s.253-2.41.389-3.769c.033-.333.063-.658.095-.989.031.331.06.655.094.989.136 1.358.278 2.704.387 3.77.11 1.065.182 1.918.182 2.044 0 .422.142.792.316 1.2.174.407.395.836.617 1.261.445.85.875 1.753.916 2.047.077.551.127.845.164 1.02.019.086.033.143.051.199a.7.7 0 00.078.164c.018.028.084.105.084.105a.611.611 0 00.993-.681.611.611 0 00-.002-.006l-.008-.036a15.476 15.476 0 01-.149-.933c-.11-.792-.603-1.604-1.043-2.445-.22-.42-.43-.83-.578-1.176-.148-.346-.217-.643-.217-.719 0-.372-.078-1.1-.187-2.17-.11-1.07-.254-2.412-.39-3.765a141.573 141.573 0 01-.34-3.819c-.077-1.101-.079-2.031-.055-2.162.08-.454.237-.476.494-.53.126-.028.255-.03.355-.024.213 1.676.522 3.584.815 5.176a.611.611 0 101.2-.221 97.635 97.635 0 01-.835-5.348 31.722 31.722 0 01-.21-2.215c-.023-.493.013-.761.026-.892.354-.264.585-.334.74-.254a.89.89 0 01.292.263c.077.952.276 2.212.474 3.387.26 1.545.523 2.887.523 2.887a.612.612 0 001.202-.234s-.263-1.33-.52-2.856c-.257-1.527-.502-3.306-.49-3.959.013-.712.172-1.006.3-1.12.13-.115.357-.177.802-.126.05.006.13.044.25.197.119.154.242.4.337.658.19.516.27 1.04.27 1.04a.611.611 0 00.029.126c.018.263.066.614.139 1.092.08.53.186 1.16.289 1.77.206 1.219.408 2.348.408 2.348a.611.611 0 101.203-.217s-.201-1.123-.406-2.334c-.103-.606-.206-1.235-.285-1.752-.08-.518-.133-.961-.137-1.055-.024-.571.195-1.075.46-1.215.16-.084.216-.079.34-.037.122.042.31.168.528.399-.108-.115.018.04.09.248.073.207.159.498.248.837.18.68.375 1.554.555 2.41.175.836.334 1.65.452 2.272l-.07-.033c-.17-.07-.28-.198-.68-.084-.445.128-.76.418-1.046.817-.285.398-.506.94-.416 1.55.054.363.207.664.39 1.006.185.342.408.699.626 1.027.101.154.104.146.199.282-.53.055-1.14.142-1.785.457-.905.442-1.535 1.393-2.05 2.232-.517.84-.862 1.592-.862 1.592a.611.611 0 101.11.51s.32-.693.792-1.461c.472-.768 1.154-1.584 1.547-1.776 1.105-.54 2.306-.396 2.306-.396a.611.611 0 00.567-.975s-.397-.522-.807-1.14c-.205-.31-.41-.643-.566-.932a3.138 3.138 0 01-.258-.606c-.03-.205.05-.447.201-.66.124-.173.261-.248.317-.287.09.04.205.097.355.184.343.197.79.493 1.242.818.451.325.91.679 1.277.995.369.315.66.626.716.709.165.248.31.786.347 1.363a6.254 6.254 0 01-.104 1.605 5.389 5.389 0 01-.494.806c-.301.409-.701.895-1.109 1.382-.408.486-.822.973-1.162 1.406-.34.433-.604.751-.746 1.166-.166.48-.087.898-.01 1.44.077.541.204 1.151.342 1.734a45.11 45.11 0 00.586 2.212.611.611 0 101.171-.347s-.302-1.022-.566-2.144a19.618 19.618 0 01-.324-1.63c-.069-.48-.03-.907-.045-.865.008-.023.235-.406.553-.81.317-.404.727-.887 1.138-1.377.411-.49.823-.989 1.157-1.44.333-.451.599-.797.702-1.271a7.232 7.232 0 00.13-1.947c-.046-.699-.171-1.397-.55-1.964-.216-.324-.534-.611-.937-.957-.403-.345-.88-.715-1.357-1.058-.145-.104-.285-.198-.427-.296a132.95 132.95 0 00-.657-3.36 52.907 52.907 0 00-.569-2.47 12.674 12.674 0 00-.277-.93c-.09-.26-.117-.432-.354-.682-.295-.313-.615-.578-1.02-.717a1.685 1.685 0 00-1.308.113 1.854 1.854 0 00-.468.352 3.01 3.01 0 00-.303-.483c-.241-.31-.599-.605-1.076-.66-.612-.07-1.262-.01-1.752.426-.363.323-.568.785-.657 1.363a1.785 1.785 0 00-.804-.045c-.402.068-.835.265-1.236.641a.611.611 0 00-.159.244c-.158.45-.13.898-.1 1.547.02.391.06.847.11 1.327-.145.003-.3.014-.47.05-.39.083-.85.348-1.153.802a1.914 1.914 0 00-1.152-.802 2.428 2.428 0 00-.295-.042c.067-.473.125-.922.16-1.31.058-.649.111-1.096-.056-1.572a.611.611 0 00-.159-.244c-.4-.376-.832-.573-1.234-.64a1.785 1.785 0 00-.805.044c-.089-.578-.295-1.04-.658-1.363-.368-.327-.824-.442-1.287-.45z" color="#000" font-weight="400" font-family="sans-serif" overflow="visible" fill="#0a2342" paint-order="markers fill stroke"/><path style="line-height:normal;font-variant-ligatures:normal;font-variant-position:normal;font-variant-caps:normal;font-variant-numeric:normal;font-variant-alternates:normal;font-feature-settings:normal;text-indent:0;text-align:start;text-decoration-line:none;text-decoration-style:solid;text-decoration-color:#000;text-transform:none;text-orientation:mixed;white-space:normal;shape-padding:0;isolation:auto;mix-blend-mode:normal;solid-color:#000;solid-opacity:1" d="M4.33 10.382a.611.611 0 100 1.222h3.552a.611.611 0 100-1.222z" color="#000" font-weight="400" font-family="sans-serif" overflow="visible" fill="#fffdf7" paint-order="markers fill stroke"/><path style="line-height:normal;font-variant-ligatures:normal;font-variant-position:normal;font-variant-caps:normal;font-variant-numeric:normal;font-variant-alternates:normal;font-feature-settings:normal;text-indent:0;text-align:start;text-decoration-line:none;text-decoration-style:solid;text-decoration-color:#000;text-transform:none;text-orientation:mixed;white-space:normal;shape-padding:0;isolation:auto;mix-blend-mode:normal;solid-color:#000;solid-opacity:1" d="M6.097 8.598a.611.611 0 00-.602.62v3.55a.611.611 0 101.223 0v-3.55a.611.611 0 00-.621-.62z" color="#000" font-weight="400" font-family="sans-serif" overflow="visible" fill="#fffdf7" paint-order="markers fill stroke"/><path style="line-height:normal;font-variant-ligatures:normal;font-variant-position:normal;font-variant-caps:normal;font-variant-numeric:normal;font-variant-alternates:normal;font-feature-settings:normal;text-indent:0;text-align:start;text-decoration-line:none;text-decoration-style:solid;text-decoration-color:#000;text-transform:none;text-orientation:mixed;white-space:normal;shape-padding:0;isolation:auto;mix-blend-mode:normal;solid-color:#000;solid-opacity:1" d="M3.753 9.41a.611.611 0 00-.272 1.142l2.168 1.285a.611.611 0 10.623-1.051L4.104 9.5a.611.611 0 00-.351-.09z" color="#000" font-weight="400" font-family="sans-serif" overflow="visible" fill="#2ca58d" paint-order="markers fill stroke"/><path style="line-height:normal;font-variant-ligatures:normal;font-variant-position:normal;font-variant-caps:normal;font-variant-numeric:normal;font-variant-alternates:normal;font-feature-settings:normal;text-indent:0;text-align:start;text-decoration-line:none;text-decoration-style:solid;text-decoration-color:#000;text-transform:none;text-orientation:mixed;white-space:normal;shape-padding:0;isolation:auto;mix-blend-mode:normal;solid-color:#000;solid-opacity:1" d="M37.132 9.407a.611.611 0 00-.332.086l-3.106 1.793a.611.611 0 10.612 1.058l3.105-1.793a.611.611 0 00-.28-1.144z" color="#000" font-weight="400" font-family="sans-serif" overflow="visible" fill="#84bc9c" paint-order="markers fill stroke"/><path style="line-height:normal;font-variant-ligatures:normal;font-variant-position:normal;font-variant-caps:normal;font-variant-numeric:normal;font-variant-alternates:normal;font-feature-settings:normal;text-indent:0;text-align:start;text-decoration-line:none;text-decoration-style:solid;text-decoration-color:#000;text-transform:none;text-orientation:mixed;white-space:normal;shape-padding:0;isolation:auto;mix-blend-mode:normal;solid-color:#000;solid-opacity:1" d="M32.72 5.686a.611.611 0 00-.422.182l-1.899 1.875a.611.611 0 10.858.87l1.9-1.874a.611.611 0 00-.437-1.053z" color="#000" font-weight="400" font-family="sans-serif" overflow="visible" fill="#2ca58d" paint-order="markers fill stroke"/><path style="line-height:normal;font-variant-ligatures:normal;font-variant-position:normal;font-variant-caps:normal;font-variant-numeric:normal;font-variant-alternates:normal;font-feature-settings:normal;text-indent:0;text-align:start;text-decoration-line:none;text-decoration-style:solid;text-decoration-color:#000;text-transform:none;text-orientation:mixed;white-space:normal;shape-padding:0;isolation:auto;mix-blend-mode:normal;solid-color:#000;solid-opacity:1" d="M28.313 1.727a.611.611 0 00-.566.366l-1.484 3.26a.611.611 0 101.11.507l1.485-3.26a.611.611 0 00-.545-.873z" color="#000" font-weight="400" font-family="sans-serif" overflow="visible" fill="#84bc9c" paint-order="markers fill stroke"/><path style="line-height:normal;font-variant-ligatures:normal;font-variant-position:normal;font-variant-caps:normal;font-variant-numeric:normal;font-variant-alternates:normal;font-feature-settings:normal;text-indent:0;text-align:start;text-decoration-line:none;text-decoration-style:solid;text-decoration-color:#000;text-transform:none;text-orientation:mixed;white-space:normal;shape-padding:0;isolation:auto;mix-blend-mode:normal;solid-color:#000;solid-opacity:1" d="M23.124 1.468a.611.611 0 00-.592.496l-.463 2.24a.611.611 0 101.197.248l.463-2.242a.611.611 0 00-.605-.742z" color="#000" font-weight="400" font-family="sans-serif" overflow="visible" fill="#2ca58d" paint-order="markers fill stroke"/><path style="line-height:normal;font-variant-ligatures:normal;font-variant-position:normal;font-variant-caps:normal;font-variant-numeric:normal;font-variant-alternates:normal;font-feature-settings:normal;text-indent:0;text-align:start;text-decoration-line:none;text-decoration-style:solid;text-decoration-color:#000;text-transform:none;text-orientation:mixed;white-space:normal;shape-padding:0;isolation:auto;mix-blend-mode:normal;solid-color:#000;solid-opacity:1" d="M17.792 0a.611.611 0 00-.574.702l.484 3.55a.611.611 0 101.21-.165L18.43.537a.611.611 0 00-.637-.536z" color="#000" font-weight="400" font-family="sans-serif" overflow="visible" fill="#84bc9c" paint-order="markers fill stroke"/><path style="line-height:normal;font-variant-ligatures:normal;font-variant-position:normal;font-variant-caps:normal;font-variant-numeric:normal;font-variant-alternates:normal;font-feature-settings:normal;text-indent:0;text-align:start;text-decoration-line:none;text-decoration-style:solid;text-decoration-color:#000;text-transform:none;text-orientation:mixed;white-space:normal;shape-padding:0;isolation:auto;mix-blend-mode:normal;solid-color:#000;solid-opacity:1" d="M12.09 3.003a.611.611 0 00-.558.89l.943 1.899a.612.612 0 101.096-.545l-.943-1.899a.611.611 0 00-.537-.345z" color="#000" font-weight="400" font-family="sans-serif" overflow="visible" fill="#2ca58d" paint-order="markers fill stroke"/><path style="line-height:normal;font-variant-ligatures:normal;font-variant-position:normal;font-variant-caps:normal;font-variant-numeric:normal;font-variant-alternates:normal;font-feature-settings:normal;text-indent:0;text-align:start;text-decoration-line:none;text-decoration-style:solid;text-decoration-color:#000;text-transform:none;text-orientation:mixed;white-space:normal;shape-padding:0;isolation:auto;mix-blend-mode:normal;solid-color:#000;solid-opacity:1" d="M6.675 4.68a.611.611 0 00-.45 1.041l2.483 2.592a.611.611 0 10.883-.845L7.108 4.876a.611.611 0 00-.433-.196zM.608 13.235a.611.611 0 00-.164 1.2l3.451 1.011a.611.611 0 10.344-1.172L.788 13.262a.611.611 0 00-.18-.027z" color="#000" font-weight="400" font-family="sans-serif" overflow="visible" fill="#84bc9c" paint-order="markers fill stroke"/><path style="line-height:normal;font-variant-ligatures:normal;font-variant-position:normal;font-variant-caps:normal;font-variant-numeric:normal;font-variant-alternates:normal;font-feature-settings:normal;text-indent:0;text-align:start;text-decoration-line:none;text-decoration-style:solid;text-decoration-color:#000;text-transform:none;text-orientation:mixed;white-space:normal;shape-padding:0;isolation:auto;mix-blend-mode:normal;solid-color:#000;solid-opacity:1" d="M38.75 13.985a.611.611 0 00-.103.014l-3.066.597a.611.611 0 10.234 1.2l3.067-.598a.611.611 0 00-.131-1.213z" color="#000" font-weight="400" font-family="sans-serif" overflow="visible" fill="#2ca58d" paint-order="markers fill stroke"/></svg>