<svg xmlns="http://www.w3.org/2000/svg" viewBox="0 0 37.175 38.026" height="143.719" width="140.502"><g fill="#2ca58d" paint-order="markers fill stroke"><path d="M24.154 33.738a15.301 2.205 0 019.419 2.808 15.301 2.205 0 01-19.479 1.357 15.301 2.205 0 01-9.425-2.806 15.301 2.205 0 0119.476-1.359" opacity=".438" fill="#0a2342"/><g color="#000" font-weight="400" font-family="sans-serif"><path d="M24.51 1.58c9.392 3.27 14.355 13.535 11.085 22.927-3.269 9.393-13.532 14.357-22.925 11.09C3.277 32.328-1.69 22.065 1.577 12.671 4.844 3.28 15.106-1.688 24.5 1.576" style="line-height:normal;font-variant-ligatures:normal;font-variant-position:normal;font-variant-caps:normal;font-variant-numeric:normal;font-variant-alternates:normal;font-variant-east-asian:normal;font-feature-settings:normal;font-variation-settings:normal;text-indent:0;text-align:start;text-decoration-line:none;text-decoration-style:solid;text-decoration-color:#000;text-transform:none;text-orientation:mixed;white-space:normal;shape-padding:0;shape-margin:0;inline-size:0;isolation:auto;mix-blend-mode:normal;solid-color:#000;solid-opacity:1" overflow="visible"/><path d="M17.38.04C10.153.515 3.56 5.22 1.033 12.484c-3.369 9.686 1.76 20.284 11.447 23.654 9.686 3.37 20.285-1.758 23.656-11.444C39.5 15.034 34.405 4.468 24.767 1.07l-.01-.006a.575.575 0 00-.057-.026.575.575 0 00-.002 0 .575.575 0 00-.004-.002.575.575 0 00-.006-.002l-.014-.004a.575.575 0 00-.056-.013 18.508 18.508 0 00-7.239-.977zm.07 1.144c2.26-.148 4.586.145 6.861.935a.575.575 0 00.01.004c9.098 3.169 13.9 13.097 10.732 22.196-3.167 9.099-13.096 13.9-22.195 10.734-9.1-3.166-13.903-13.091-10.738-22.191C4.493 6.037 10.67 1.627 17.45 1.184z" style="line-height:normal;font-variant-ligatures:normal;font-variant-position:normal;font-variant-caps:normal;font-variant-numeric:normal;font-variant-alternates:normal;font-variant-east-asian:normal;font-feature-settings:normal;font-variation-settings:normal;text-indent:0;text-align:start;text-decoration-line:none;text-decoration-style:solid;text-decoration-color:#000;text-transform:none;text-orientation:mixed;white-space:normal;shape-padding:0;shape-margin:0;inline-size:0;isolation:auto;mix-blend-mode:normal;solid-color:#000;solid-opacity:1" overflow="visible" fill="#0a2342"/></g><g color="#000" font-weight="400" font-family="sans-serif"><path d="M23.751 3.759c8.19 2.851 12.516 11.8 9.666 19.99-2.85 8.19-11.8 12.518-19.99 9.669C5.239 30.568.909 21.62 3.758 13.43 6.603 5.24 15.551.91 23.741 3.755" style="line-height:normal;font-variant-ligatures:normal;font-variant-position:normal;font-variant-caps:normal;font-variant-numeric:normal;font-variant-alternates:normal;font-variant-east-asian:normal;font-feature-settings:normal;font-variation-settings:normal;text-indent:0;text-align:start;text-decoration-line:none;text-decoration-style:solid;text-decoration-color:#000;text-transform:none;text-orientation:mixed;white-space:normal;shape-padding:0;shape-margin:0;inline-size:0;isolation:auto;mix-blend-mode:normal;solid-color:#000;solid-opacity:1" overflow="visible" fill="#fffdf7"/><path d="M17.534 2.416c-6.3.416-12.048 4.515-14.25 10.85-2.937 8.446 1.533 17.687 9.978 20.625 8.446 2.938 17.688-1.532 20.627-9.977 2.932-8.423-1.509-17.633-9.91-20.6l-.006-.003a.501.501 0 00-.056-.026.501.501 0 00-.01-.004c-.016-.005-.032-.006-.047-.011a.501.501 0 00-.008-.002 16.139 16.139 0 00-6.318-.852zm.06.996c1.97-.129 3.999.127 5.983.817a.501.501 0 00.004.002.501.501 0 00.005.002c7.934 2.762 12.12 11.418 9.358 19.351-2.762 7.934-11.418 12.12-19.352 9.36-7.934-2.76-12.122-11.416-9.363-19.35 2.07-5.95 7.454-9.795 13.365-10.182z" style="line-height:normal;font-variant-ligatures:normal;font-variant-position:normal;font-variant-caps:normal;font-variant-numeric:normal;font-variant-alternates:normal;font-variant-east-asian:normal;font-feature-settings:normal;font-variation-settings:normal;text-indent:0;text-align:start;text-decoration-line:none;text-decoration-style:solid;text-decoration-color:#000;text-transform:none;text-orientation:mixed;white-space:normal;shape-padding:0;shape-margin:0;inline-size:0;isolation:auto;mix-blend-mode:normal;solid-color:#000;solid-opacity:1" overflow="visible" fill="#0a2342"/></g><g color="#000" font-weight="400" font-family="sans-serif"><path d="M23.131 23.974s1.45 2.113.895 2.38c-.554.269-1.925-.209-1.911-.548.014-.34 1.016-1.832 1.016-1.832z" style="line-height:normal;font-variant-ligatures:normal;font-variant-position:normal;font-variant-caps:normal;font-variant-numeric:normal;font-variant-alternates:normal;font-variant-east-asian:normal;font-feature-settings:normal;font-variation-settings:normal;text-indent:0;text-align:start;text-decoration-line:none;text-decoration-style:solid;text-decoration-color:#000;text-transform:none;text-orientation:mixed;white-space:normal;shape-padding:0;shape-margin:0;inline-size:0;isolation:auto;mix-blend-mode:normal;solid-color:#000;solid-opacity:1" overflow="visible" fill="#fffdf7"/><path d="M23.153 23.4a.575.575 0 00-.499.254s-.257.382-.518.81c-.13.215-.26.442-.368.65-.107.21-.213.318-.227.668a.759.759 0 00.186.522c.092.111.189.184.289.25.2.13.425.225.67.302.49.153 1.026.29 1.59.017.247-.12.405-.399.438-.606a1.272 1.272 0 00-.036-.535c-.079-.322-.224-.633-.381-.935-.315-.602-.693-1.148-.693-1.148a.575.575 0 00-.451-.25zm-.036 1.664c.073.124.09.132.16.266.095.183.146.33.2.477-.152-.002-.25.015-.448-.047-.105-.033-.17-.07-.246-.107l.008-.016c.085-.165.205-.373.326-.573z" style="line-height:normal;font-variant-ligatures:normal;font-variant-position:normal;font-variant-caps:normal;font-variant-numeric:normal;font-variant-alternates:normal;font-variant-east-asian:normal;font-feature-settings:normal;font-variation-settings:normal;text-indent:0;text-align:start;text-decoration-line:none;text-decoration-style:solid;text-decoration-color:#000;text-transform:none;text-orientation:mixed;white-space:normal;shape-padding:0;shape-margin:0;inline-size:0;isolation:auto;mix-blend-mode:normal;solid-color:#000;solid-opacity:1" overflow="visible" fill="#0a2342"/><g><path d="M22.533 24.967l-4.375-3.123c-.027-.026-.12-.032-.262-.023-.141.01-.331.033-.554.069-.118.019-.287.057-.421.08.039-.004.078-.006.118-.011-.056.006-.126.018-.185.025-.353.064-.703.127-1.093.21-1.131.24-2.235.507-2.235.507l-.021-.002c-.551.192-1.065.416-1.451.698-1.794 1.312-.535 2.516.723 2.918 1.258.402 8.352 0 8.352 0s.67.107 1.205-.75c.067-.107.135-.315.199-.598z" style="line-height:normal;font-variant-ligatures:normal;font-variant-position:normal;font-variant-caps:normal;font-variant-numeric:normal;font-variant-alternates:normal;font-variant-east-asian:normal;font-feature-settings:normal;font-variation-settings:normal;text-indent:0;text-align:start;text-decoration-line:none;text-decoration-style:solid;text-decoration-color:#000;text-transform:none;text-orientation:mixed;white-space:normal;shape-padding:0;shape-margin:0;inline-size:0;isolation:auto;mix-blend-mode:normal;solid-color:#000;solid-opacity:1" overflow="visible"/><path d="M17.855 21.2a6.938 6.938 0 00-.61.075c-.156.025-.323.065-.435.085a.622.622 0 00-.031.007.622.622 0 00-.037.006c-.351.064-.709.127-1.11.213a91.478 91.478 0 00-2.182.494.622.622 0 00-.149.033c-.58.201-1.142.437-1.613.782-.513.375-.864.78-1.036 1.235-.172.457-.127.95.059 1.337.37.772 1.133 1.204 1.876 1.441.505.161 1.153.18 2.013.199.859.019 1.87.005 2.842-.02 1.942-.051 3.723-.151 3.723-.151l-.134-.008s.341.045.701-.079c.36-.123.794-.417 1.13-.954.131-.211.173-.42.23-.658a.622.622 0 00.047-.132.622.622 0 000-.002.622.622 0 00.016-.148.622.622 0 00-.26-.494l-4.376-3.123.07.059c-.25-.242-.37-.189-.466-.197a1.711 1.711 0 00-.266 0 .622.622 0 00-.002 0zm.07 1.243l3.886 2.772-.005.02c-.2.32-.37.4-.477.438-.109.037-.101.027-.101.027a.622.622 0 00-.135-.005s-1.765.098-3.684.148c-.96.025-1.957.039-2.782.02-.825-.018-1.537-.101-1.662-.14-.514-.165-1.01-.537-1.134-.796-.062-.13-.074-.207-.017-.358.057-.151.222-.39.606-.67.29-.212.743-.414 1.241-.591h.004a.622.622 0 00.007-.002s1.098-.265 2.218-.503c.376-.08.715-.142 1.065-.206.004 0 .008 0 .011-.002l.145-.018c.007 0 .006 0 .013-.002a.622.622 0 00.14-.036c.06-.013.141-.03.176-.035a6.12 6.12 0 01.485-.061z" style="line-height:normal;font-variant-ligatures:normal;font-variant-position:normal;font-variant-caps:normal;font-variant-numeric:normal;font-variant-alternates:normal;font-variant-east-asian:normal;font-feature-settings:normal;font-variation-settings:normal;text-indent:0;text-align:start;text-decoration-line:none;text-decoration-style:solid;text-decoration-color:#000;text-transform:none;text-orientation:mixed;white-space:normal;shape-padding:0;shape-margin:0;inline-size:0;isolation:auto;mix-blend-mode:normal;solid-color:#000;solid-opacity:1" overflow="visible" fill="#0a2342"/><path d="M18.157 21.844l1.222-2.733-1.893-.908c-.024-.01-.064-.013-.09-.022-.148.676-.23 1.254-.23 1.254s-1.578.616-2.81 1.339c-1.231.722-1.392 1.044-1.392 1.472 0 .416.516.45.546.451l-.005.002.021.002c1.842-.46 3.138-.887 4.632-.857z" style="line-height:normal;font-variant-ligatures:normal;font-variant-position:normal;font-variant-caps:normal;font-variant-numeric:normal;font-variant-alternates:normal;font-variant-east-asian:normal;font-feature-settings:normal;font-variation-settings:normal;text-indent:0;text-align:start;text-decoration-line:none;text-decoration-style:solid;text-decoration-color:#000;text-transform:none;text-orientation:mixed;white-space:normal;shape-padding:0;shape-margin:0;inline-size:0;isolation:auto;mix-blend-mode:normal;solid-color:#000;solid-opacity:1" overflow="visible" fill="#fffdf7"/><path d="M17.41 17.56a.622.622 0 00-.622.488c-.114.52-.145.758-.176.964-.3.118-1.42.55-2.57 1.226-.64.376-1.035.653-1.313.975a1.656 1.656 0 00-.386 1.034c0 .465.366.827.624.945.139.063.18.053.272.068a.622.622 0 00.211.059l.022.002a.622.622 0 00.206-.017c1.863-.465 3.1-.865 4.467-.837l-.002-.002a.622.622 0 00.582-.367l1.221-2.732a.622.622 0 00-.297-.815l-1.893-.91a.622.622 0 00-.026-.01c-.217-.093-.253-.08-.13-.037a.622.622 0 00-.19-.035zm.454 1.514l.701.336-.831 1.86c-1.331.046-2.564.37-4.056.753.112-.128.407-.369.993-.713 1.164-.683 2.721-1.296 2.721-1.296a.622.622 0 00.391-.492s.06-.319.08-.448z" style="line-height:normal;font-variant-ligatures:normal;font-variant-position:normal;font-variant-caps:normal;font-variant-numeric:normal;font-variant-alternates:normal;font-variant-east-asian:normal;font-feature-settings:normal;font-variation-settings:normal;text-indent:0;text-align:start;text-decoration-line:none;text-decoration-style:solid;text-decoration-color:#000;text-transform:none;text-orientation:mixed;white-space:normal;shape-padding:0;shape-margin:0;inline-size:0;isolation:auto;mix-blend-mode:normal;solid-color:#000;solid-opacity:1" overflow="visible" fill="#0a2342"/><path d="M20.393 9.915a2.958 2.958 0 11-1.942 5.588 2.958 2.958 0 011.94-5.589" style="line-height:normal;font-variant-ligatures:normal;font-variant-position:normal;font-variant-caps:normal;font-variant-numeric:normal;font-variant-alternates:normal;font-variant-east-asian:normal;font-feature-settings:normal;font-variation-settings:normal;text-indent:0;text-align:start;text-decoration-line:none;text-decoration-style:solid;text-decoration-color:#000;text-transform:none;text-orientation:mixed;white-space:normal;shape-padding:0;shape-margin:0;inline-size:0;isolation:auto;mix-blend-mode:normal;solid-color:#000;solid-opacity:1" overflow="visible" fill="#fffdf7"/><path d="M19.19 9.137a3.592 3.592 0 00-3.151 2.396 3.59 3.59 0 002.205 4.557 3.59 3.59 0 004.557-2.205c.62-1.781-.288-3.703-1.998-4.434a.622.622 0 00-.205-.123.622.622 0 00-.002-.001l-.007-.002a.622.622 0 00-.228-.03c-.39-.106-.785-.184-1.171-.158zm.997 1.365a.622.622 0 00.001 0 2.328 2.328 0 011.44 2.974 2.328 2.328 0 01-2.975 1.44 2.328 2.328 0 01-1.439-2.975 2.326 2.326 0 012.973-1.44z" style="line-height:normal;font-variant-ligatures:normal;font-variant-position:normal;font-variant-caps:normal;font-variant-numeric:normal;font-variant-alternates:normal;font-variant-east-asian:normal;font-feature-settings:normal;font-variation-settings:normal;text-indent:0;text-align:start;text-decoration-line:none;text-decoration-style:solid;text-decoration-color:#000;text-transform:none;text-orientation:mixed;white-space:normal;shape-padding:0;shape-margin:0;inline-size:0;isolation:auto;mix-blend-mode:normal;solid-color:#000;solid-opacity:1" overflow="visible" fill="#0a2342"/><g><path d="M18.264 16.142c-.643.393-.659 1.08-.868 2.039.026.009.066.011.09.022l1.893.908-1.222 2.733 4.376 3.123c.45-1.988.738-7.703-.574-8.664-1.186-.83-2.5-.878-3.695-.16z" style="line-height:normal;font-variant-ligatures:normal;font-variant-position:normal;font-variant-caps:normal;font-variant-numeric:normal;font-variant-alternates:normal;font-variant-east-asian:normal;font-feature-settings:normal;font-variation-settings:normal;text-indent:0;text-align:start;text-decoration-line:none;text-decoration-style:solid;text-decoration-color:#000;text-transform:none;text-orientation:mixed;white-space:normal;shape-padding:0;shape-margin:0;inline-size:0;isolation:auto;mix-blend-mode:normal;solid-color:#000;solid-opacity:1" overflow="visible" fill="#84bc9c"/><path d="M20.139 15.037c-.636-.027-1.26.192-1.858.484a.622.622 0 00-.336.088.622.622 0 00-.004.002c-.458.28-.728.724-.865 1.146-.137.421-.19.839-.288 1.29a.622.622 0 00.4.72c.169.06.18.063.048.006l1.33.637-.976 2.181a.622.622 0 00.206.76l4.375 3.121a.622.622 0 00.968-.367c.247-1.091.426-3.018.39-4.867-.02-.924-.092-1.82-.256-2.585-.164-.764-.374-1.43-.948-1.85a.622.622 0 00-.01-.01 4.082 4.082 0 00-2.176-.756zm-.048 1.211c.498.021.996.208 1.502.56.083.063.328.468.464 1.106.138.64.21 1.475.228 2.348.027 1.362-.133 2.557-.279 3.564l-3.073-2.193 1.013-2.267a.622.622 0 00-.297-.815l-1.537-.738c.046-.237.098-.523.147-.672.084-.26.143-.352.326-.465.507-.304 1.005-.449 1.506-.428z" style="line-height:normal;font-variant-ligatures:normal;font-variant-position:normal;font-variant-caps:normal;font-variant-numeric:normal;font-variant-alternates:normal;font-variant-east-asian:normal;font-feature-settings:normal;font-variation-settings:normal;text-indent:0;text-align:start;text-decoration-line:none;text-decoration-style:solid;text-decoration-color:#000;text-transform:none;text-orientation:mixed;white-space:normal;shape-padding:0;shape-margin:0;inline-size:0;isolation:auto;mix-blend-mode:normal;solid-color:#000;solid-opacity:1" overflow="visible" fill="#0a2342"/></g><g><path d="M16.297 12.645l6.116-.243s-.057-2.328-.379-2.839c-.322-.511-5.015.028-5.488.141-.473.114-.25 2.941-.25 2.941z" style="line-height:normal;font-variant-ligatures:normal;font-variant-position:normal;font-variant-caps:normal;font-variant-numeric:normal;font-variant-alternates:normal;font-variant-east-asian:normal;font-feature-settings:normal;font-variation-settings:normal;text-indent:0;text-align:start;text-decoration-line:none;text-decoration-style:solid;text-decoration-color:#000;text-transform:none;text-orientation:mixed;white-space:normal;shape-padding:0;shape-margin:0;inline-size:0;isolation:auto;mix-blend-mode:normal;solid-color:#000;solid-opacity:1" overflow="visible" fill="#84bc9c"/><path d="M21.132 8.732a18.077 18.077 0 00-1.827.047 39.94 39.94 0 00-1.817.166c-.521.06-.85.097-1.087.154-.35.084-.494.341-.57.512-.076.171-.11.33-.137.501-.056.342-.07.724-.072 1.102-.003.755.055 1.48.055 1.48a.622.622 0 00.645.573l6.115-.243a.622.622 0 00.597-.637s-.013-.597-.07-1.265a11.76 11.76 0 00-.123-1.006c-.055-.32-.091-.584-.28-.885-.235-.373-.488-.376-.707-.422a4.307 4.307 0 00-.722-.077zm-.05 1.243c.202.008.352.027.458.046.019.063.045.123.077.308.045.26.082.586.108.898.026.304.023.362.033.58L16.895 12c-.015-.265-.032-.391-.03-.78.002-.344.021-.689.057-.91l.007-.034c.148-.023.325-.053.7-.096a38.848 38.848 0 011.759-.16 17.33 17.33 0 011.694-.045z" style="line-height:normal;font-variant-ligatures:normal;font-variant-position:normal;font-variant-caps:normal;font-variant-numeric:normal;font-variant-alternates:normal;font-variant-east-asian:normal;font-feature-settings:normal;font-variation-settings:normal;text-indent:0;text-align:start;text-decoration-line:none;text-decoration-style:solid;text-decoration-color:#000;text-transform:none;text-orientation:mixed;white-space:normal;shape-padding:0;shape-margin:0;inline-size:0;isolation:auto;mix-blend-mode:normal;solid-color:#000;solid-opacity:1" overflow="visible" fill="#0a2342"/></g></g></g><g fill="#0a2342"><path d="M18.587 4.695c.354 0 .639.388.639.87v.128c0 .482-.285.87-.639.87-.354 0-.638-.388-.638-.87v-.127c0-.483.284-.871.638-.871zM18.587 32.465c.354 0 .639-.388.639-.87v-.127c0-.483-.285-.871-.639-.871-.354 0-.638.388-.638.87v.128c0 .482.284.87.638.87z"/></g><g fill="#0a2342"><path d="M32.473 18.58c0 .354-.389.639-.871.639h-.127c-.483 0-.87-.285-.87-.639 0-.354.387-.638.87-.638h.127c.482 0 .87.284.87.638zM4.702 18.58c0 .354.388.639.87.639H5.7c.482 0 .87-.285.87-.639 0-.354-.388-.638-.87-.638h-.127c-.483 0-.871.284-.871.638z"/></g><g fill="#0a2342"><path d="M25.434 6.5c.308.175.364.653.126 1.073l-.062.11c-.238.42-.677.617-.985.443-.308-.175-.364-.653-.126-1.073l.062-.11c.238-.42.677-.617.985-.443zM11.74 30.66c.308.174.747-.023.985-.443l.063-.11c.238-.42.181-.898-.126-1.073-.308-.174-.747.023-.985.443l-.063.11c-.238.42-.181.899.126 1.073z"/></g><g fill="#0a2342"><path d="M30.667 25.427c-.174.308-.653.364-1.072.126l-.11-.062c-.42-.238-.618-.677-.443-.985.174-.308.652-.364 1.072-.126l.11.062c.42.238.617.677.443.985zM6.507 11.733c-.174.308.023.747.443.985l.11.063c.42.238.899.181 1.073-.126.174-.308-.023-.747-.443-.985l-.11-.063c-.42-.238-.898-.181-1.073.126z"/></g><g fill="#0a2342"><path d="M30.511 11.465c.181.304-.006.748-.42.995l-.11.065c-.414.247-.893.201-1.074-.102-.182-.304.006-.748.42-.995l.11-.065c.413-.247.893-.202 1.074.102zM6.663 25.695c.182.304.661.35 1.075.102l.11-.065c.414-.247.601-.69.42-.994-.181-.304-.66-.35-1.075-.103l-.11.066c-.413.247-.6.69-.42.994z"/></g><g fill="#0a2342"><path d="M25.702 30.504c-.304.181-.747-.006-.994-.42l-.065-.11c-.248-.414-.202-.893.102-1.074.304-.182.747.006.994.42l.065.11c.248.413.202.893-.102 1.074zM11.472 6.656c-.303.182-.349.661-.102 1.075l.065.11c.247.413.691.601.995.42.304-.181.35-.66.102-1.075l-.065-.11c-.247-.413-.69-.601-.995-.42z"/></g></g></svg>