<svg xmlns="http://www.w3.org/2000/svg" viewBox="0 0 46.066 30.093" height="113.738" width="174.11"><g fill="#2ca58d" stroke-width="1.308" paint-order="markers fill stroke"><path d="M8.555 29.482s9.627-2.791 14.573-2.789c4.917.003 14.483 2.79 14.483 2.79l-14.5-5.332z" opacity=".497" fill="#0a2342"/><path d="M23.11 24.15V5.865L10.475 2.772.61 17.86z"/><path d="M10.494 2.16a.611.611 0 00-.531.277L.1 17.525a.611.611 0 00.347.923l22.498 6.29a.611.611 0 00.776-.587V5.864a.611.611 0 00-.466-.593L10.62 2.178a.611.611 0 00-.126-.018zm.255 1.309l11.749 2.875v17L1.58 17.496z" style="line-height:normal;font-variant-ligatures:normal;font-variant-position:normal;font-variant-caps:normal;font-variant-numeric:normal;font-variant-alternates:normal;font-variant-east-asian:normal;font-feature-settings:normal;font-variation-settings:normal;text-indent:0;text-align:start;text-decoration-line:none;text-decoration-style:solid;text-decoration-color:#000;text-transform:none;text-orientation:mixed;white-space:normal;shape-padding:0;shape-margin:0;inline-size:0;isolation:auto;mix-blend-mode:normal;solid-color:#000;solid-opacity:1" color="#000" font-weight="400" font-family="sans-serif" overflow="visible" fill="#0a2342"/><g color="#000" font-weight="400" font-family="sans-serif"><path d="M23.11 24.15L8.555 29.483l2.026-8.797z" style="line-height:normal;font-variant-ligatures:normal;font-variant-position:normal;font-variant-caps:normal;font-variant-numeric:normal;font-variant-alternates:normal;font-variant-east-asian:normal;font-feature-settings:normal;font-variation-settings:normal;text-indent:0;text-align:start;text-decoration-line:none;text-decoration-style:solid;text-decoration-color:#000;text-transform:none;text-orientation:mixed;white-space:normal;shape-padding:0;shape-margin:0;inline-size:0;isolation:auto;mix-blend-mode:normal;solid-color:#000;solid-opacity:1" overflow="visible" fill="#84bc9c"/><path d="M10.556 20.075a.611.611 0 00-.571.473L7.96 29.344a.611.611 0 00.805.712l14.556-5.332a.611.611 0 00-.047-1.163l-12.53-3.464a.611.611 0 00-.188-.022zm.478 1.369L21.11 24.23l-11.705 4.29z" style="line-height:normal;font-variant-ligatures:normal;font-variant-position:normal;font-variant-caps:normal;font-variant-numeric:normal;font-variant-alternates:normal;font-variant-east-asian:normal;font-feature-settings:normal;font-variation-settings:normal;text-indent:0;text-align:start;text-decoration-line:none;text-decoration-style:solid;text-decoration-color:#000;text-transform:none;text-orientation:mixed;white-space:normal;shape-padding:0;shape-margin:0;inline-size:0;isolation:auto;mix-blend-mode:normal;solid-color:#000;solid-opacity:1" overflow="visible" fill="#0a2342"/></g><g color="#000" font-weight="400" font-family="sans-serif"><path d="M16.234.612c-2.143.023-3.394.78-3.394.78L6.065 15.18l17.018 6.549V3.585c-1-.73-4.039-2.823-6.155-2.955a9.507 9.507 0 00-.694-.018z" style="line-height:normal;font-variant-ligatures:normal;font-variant-position:normal;font-variant-caps:normal;font-variant-numeric:normal;font-variant-alternates:normal;font-variant-east-asian:normal;font-feature-settings:normal;font-variation-settings:normal;text-indent:0;text-align:start;text-decoration-line:none;text-decoration-style:solid;text-decoration-color:#000;text-transform:none;text-orientation:mixed;white-space:normal;shape-padding:0;shape-margin:0;inline-size:0;isolation:auto;mix-blend-mode:normal;solid-color:#000;solid-opacity:1" overflow="visible" fill="#fffdf7"/><path d="M16.228 0c-2.286.025-3.704.87-3.704.87a.611.611 0 00-.234.251l-6.774 13.79a.611.611 0 00.33.84L22.863 22.3a.611.611 0 00.832-.571V3.586a.611.611 0 00-.251-.495 26.277 26.277 0 00-2.726-1.743C19.533.697 18.208.098 16.967.02a10.16 10.16 0 00-.74-.02zm.012 1.224c.208-.003.425.002.65.016.876.055 2.127.568 3.24 1.18a22.828 22.828 0 012.342 1.498v16.92L6.91 14.85l6.385-12.993c.172-.098 1.119-.614 2.946-.633z" style="line-height:normal;font-variant-ligatures:normal;font-variant-position:normal;font-variant-caps:normal;font-variant-numeric:normal;font-variant-alternates:normal;font-variant-east-asian:normal;font-feature-settings:normal;font-variation-settings:normal;text-indent:0;text-align:start;text-decoration-line:none;text-decoration-style:solid;text-decoration-color:#000;text-transform:none;text-orientation:mixed;white-space:normal;shape-padding:0;shape-margin:0;inline-size:0;isolation:auto;mix-blend-mode:normal;solid-color:#000;solid-opacity:1" overflow="visible" fill="#0a2342"/></g><path d="M12.407 13.569c-4.577-.365-4.542.278-6.557 1.039a.611.611 0 00-.356.788.611.611 0 00.787.356c2.228-.84 1.566-1.315 6.01-.964 4.65.698 8.191 3.053 10.243 7.21a.611.611 0 00.82.278.611.611 0 00.278-.817c-2.226-4.508-6.205-7.146-11.183-7.886a.611.611 0 00-.042-.004z" style="line-height:normal;font-variant-ligatures:normal;font-variant-position:normal;font-variant-caps:normal;font-variant-numeric:normal;font-variant-alternates:normal;font-variant-east-asian:normal;font-feature-settings:normal;font-variation-settings:normal;text-indent:0;text-align:start;text-decoration-line:none;text-decoration-style:solid;text-decoration-color:#000;text-transform:none;text-orientation:mixed;white-space:normal;shape-padding:0;shape-margin:0;inline-size:0;isolation:auto;mix-blend-mode:normal;solid-color:#000;solid-opacity:1" color="#000" font-weight="400" font-family="sans-serif" overflow="visible" fill="#0a2342"/><path d="M10.177 23.174c.875 0 12.88.977 12.88.977L10.58 20.685z" opacity=".497" fill="#0a2342"/><g fill="#0a2342" stroke-width="4.335" color="#000" font-weight="400" font-family="sans-serif"><path d="M14.126 5.956c-.366.012-.73.047-1.09.109a.611.611 0 00-.499.706.611.611 0 00.706.5c2.387-.41 5.327.666 6.906 2.096a.611.611 0 00.864-.043.611.611 0 00-.043-.864c-1.656-1.5-4.286-2.586-6.844-2.504zM13.503 9.518c-.799-.026-1.52.03-2.11.15a.611.611 0 00-.476.723.611.611 0 00.721.476c.93-.19 2.526-.192 4.168.186 1.64.38 3.332 1.13 4.571 2.362a.611.611 0 00.865-.002.611.611 0 00-.003-.864c-1.454-1.448-3.354-2.27-5.159-2.687a13.55 13.55 0 00-2.577-.344zM14.274 3.094a.611.611 0 00-.579.643.611.611 0 00.643.578c1.88-.098 3.781.265 5.716 1.504a.611.611 0 00.844-.185.611.611 0 00-.185-.845c-2.154-1.38-4.354-1.803-6.44-1.695z" style="line-height:normal;font-variant-ligatures:normal;font-variant-position:normal;font-variant-caps:normal;font-variant-numeric:normal;font-variant-alternates:normal;font-variant-east-asian:normal;font-feature-settings:normal;font-variation-settings:normal;text-indent:0;text-align:start;text-decoration-line:none;text-decoration-style:solid;text-decoration-color:#000;text-transform:none;text-orientation:mixed;white-space:normal;shape-padding:0;shape-margin:0;inline-size:0;isolation:auto;mix-blend-mode:normal;solid-color:#000;solid-opacity:1" overflow="visible"/></g><g><path d="M23.056 24.15V5.865l12.636-3.092 9.863 15.088z"/><path style="line-height:normal;font-variant-ligatures:normal;font-variant-position:normal;font-variant-caps:normal;font-variant-numeric:normal;font-variant-alternates:normal;font-variant-east-asian:normal;font-feature-settings:normal;font-variation-settings:normal;text-indent:0;text-align:start;text-decoration-line:none;text-decoration-style:solid;text-decoration-color:#000;text-transform:none;text-orientation:mixed;white-space:normal;shape-padding:0;shape-margin:0;inline-size:0;isolation:auto;mix-blend-mode:normal;solid-color:#000;solid-opacity:1" d="M35.672 2.16a.611.611 0 01.532.277l9.863 15.088a.611.611 0 01-.347.923l-22.499 6.29a.611.611 0 01-.776-.587V5.864a.611.611 0 01.466-.593l12.636-3.093a.611.611 0 01.125-.018zm-.255 1.309L23.668 6.344v17l20.918-5.848z" color="#000" font-weight="400" font-family="sans-serif" overflow="visible" fill="#0a2342"/><g color="#000" font-weight="400" font-family="sans-serif"><path style="line-height:normal;font-variant-ligatures:normal;font-variant-position:normal;font-variant-caps:normal;font-variant-numeric:normal;font-variant-alternates:normal;font-variant-east-asian:normal;font-feature-settings:normal;font-variation-settings:normal;text-indent:0;text-align:start;text-decoration-line:none;text-decoration-style:solid;text-decoration-color:#000;text-transform:none;text-orientation:mixed;white-space:normal;shape-padding:0;shape-margin:0;inline-size:0;isolation:auto;mix-blend-mode:normal;solid-color:#000;solid-opacity:1" d="M23.056 24.15l14.555 5.332-2.026-8.797z" overflow="visible" fill="#84bc9c"/><path style="line-height:normal;font-variant-ligatures:normal;font-variant-position:normal;font-variant-caps:normal;font-variant-numeric:normal;font-variant-alternates:normal;font-variant-east-asian:normal;font-feature-settings:normal;font-variation-settings:normal;text-indent:0;text-align:start;text-decoration-line:none;text-decoration-style:solid;text-decoration-color:#000;text-transform:none;text-orientation:mixed;white-space:normal;shape-padding:0;shape-margin:0;inline-size:0;isolation:auto;mix-blend-mode:normal;solid-color:#000;solid-opacity:1" d="M35.61 20.075a.611.611 0 01.572.473l2.024 8.796a.611.611 0 01-.805.712l-14.556-5.332a.611.611 0 01.048-1.163l12.53-3.464a.611.611 0 01.187-.022zm-.478 1.369L25.058 24.23l11.704 4.29z" overflow="visible" fill="#0a2342"/></g><g color="#000" font-weight="400" font-family="sans-serif"><path style="line-height:normal;font-variant-ligatures:normal;font-variant-position:normal;font-variant-caps:normal;font-variant-numeric:normal;font-variant-alternates:normal;font-variant-east-asian:normal;font-feature-settings:normal;font-variation-settings:normal;text-indent:0;text-align:start;text-decoration-line:none;text-decoration-style:solid;text-decoration-color:#000;text-transform:none;text-orientation:mixed;white-space:normal;shape-padding:0;shape-margin:0;inline-size:0;isolation:auto;mix-blend-mode:normal;solid-color:#000;solid-opacity:1" d="M29.932.612c2.144.023 3.395.78 3.395.78L40.1 15.18 23.083 21.73V3.585c1-.73 4.039-2.823 6.155-2.955.24-.015.472-.02.694-.018z" overflow="visible" fill="#fffdf7"/><path style="line-height:normal;font-variant-ligatures:normal;font-variant-position:normal;font-variant-caps:normal;font-variant-numeric:normal;font-variant-alternates:normal;font-variant-east-asian:normal;font-feature-settings:normal;font-variation-settings:normal;text-indent:0;text-align:start;text-decoration-line:none;text-decoration-style:solid;text-decoration-color:#000;text-transform:none;text-orientation:mixed;white-space:normal;shape-padding:0;shape-margin:0;inline-size:0;isolation:auto;mix-blend-mode:normal;solid-color:#000;solid-opacity:1" d="M29.939 0c2.285.025 3.704.87 3.704.87a.611.611 0 01.233.251l6.774 13.79a.611.611 0 01-.33.84L23.303 22.3a.611.611 0 01-.832-.571V3.586a.611.611 0 01.252-.495 26.277 26.277 0 012.725-1.743C26.633.697 27.96.098 29.2.02c.256-.016.503-.023.74-.02zm-.013 1.224a8.924 8.924 0 00-.65.016c-.876.055-2.127.568-3.24 1.18a22.828 22.828 0 00-2.342 1.498v16.92l15.564-5.988-6.386-12.993c-.171-.098-1.119-.614-2.946-.633z" overflow="visible" fill="#0a2342"/></g><path style="line-height:normal;font-variant-ligatures:normal;font-variant-position:normal;font-variant-caps:normal;font-variant-numeric:normal;font-variant-alternates:normal;font-variant-east-asian:normal;font-feature-settings:normal;font-variation-settings:normal;text-indent:0;text-align:start;text-decoration-line:none;text-decoration-style:solid;text-decoration-color:#000;text-transform:none;text-orientation:mixed;white-space:normal;shape-padding:0;shape-margin:0;inline-size:0;isolation:auto;mix-blend-mode:normal;solid-color:#000;solid-opacity:1" d="M33.76 13.569c4.576-.365 4.542.278 6.556 1.039a.611.611 0 01.356.788.611.611 0 01-.786.356c-2.229-.84-1.566-1.315-6.01-.964-4.65.698-8.192 3.053-10.244 7.21a.611.611 0 01-.82.278.611.611 0 01-.277-.817c2.225-4.508 6.204-7.146 11.182-7.886a.611.611 0 01.042-.004z" color="#000" font-weight="400" font-family="sans-serif" overflow="visible" fill="#0a2342"/><path d="M35.99 23.174c-.875 0-12.88.977-12.88.977l12.475-3.466z" opacity=".497" fill="#0a2342"/><g fill="#0a2342" stroke-width="4.335" color="#000" font-weight="400" font-family="sans-serif"><path style="line-height:normal;font-variant-ligatures:normal;font-variant-position:normal;font-variant-caps:normal;font-variant-numeric:normal;font-variant-alternates:normal;font-variant-east-asian:normal;font-feature-settings:normal;font-variation-settings:normal;text-indent:0;text-align:start;text-decoration-line:none;text-decoration-style:solid;text-decoration-color:#000;text-transform:none;text-orientation:mixed;white-space:normal;shape-padding:0;shape-margin:0;inline-size:0;isolation:auto;mix-blend-mode:normal;solid-color:#000;solid-opacity:1" d="M32.04 5.956c.366.012.73.047 1.09.109a.611.611 0 01.5.706.611.611 0 01-.707.5c-2.387-.41-5.327.666-6.906 2.096a.611.611 0 01-.864-.043.611.611 0 01.043-.864c1.656-1.5 4.286-2.586 6.845-2.504zM32.663 9.518c.8-.026 1.52.03 2.11.15a.611.611 0 01.477.723.611.611 0 01-.722.476c-.93-.19-2.526-.192-4.167.186-1.642.38-3.333 1.13-4.572 2.362a.611.611 0 01-.864-.002.611.611 0 01.002-.864c1.454-1.448 3.355-2.27 5.159-2.687a13.55 13.55 0 012.577-.344zM31.893 3.094a.611.611 0 01.578.643.611.611 0 01-.642.578c-1.881-.098-3.782.265-5.716 1.504a.611.611 0 01-.845-.185.611.611 0 01.185-.845c2.154-1.38 4.354-1.803 6.44-1.695z" overflow="visible"/></g></g></g></svg>